# xmcd
#
# Track frame offsets: 
#        150
#        19723
#        44845
#        77025
#        108995
#        134188
#        159278
#
# Disc length: 2501 seconds
#
# Revision: 0
# Processed by: cddbd v1.5.2PL0 Copyright (c) Steve Scherf et al.
# Submitted via: ExactAudioCopyFreeDBPlugin 1.0
#
DISCID=5909c307
DTITLE=London Jones - Save Our Love
DYEAR=1995
DGENRE=R&B
TTITLE0=Save Our Love (Single Edit)
TTITLE1=Save Our Love (Fade)
TTITLE2=Save Our Love (Long Version)
TTITLE3=Save Our Love (KD London Dub)
TTITLE4=Save Our Love (Instrumental)
TTITLE5=Save Our Love (Suite)
TTITLE6=Save Our Love (Acappella)
EXTD=
EXTT0=
EXTT1=
EXTT2=
EXTT3=
EXTT4=
EXTT5=
EXTT6=
PLAYORDER=
